<svg xmlns="http://www.w3.org/2000/svg" version="1.1" xmlns:xlink="http://www.w3.org/1999/xlink" width="1500" height="1500" viewBox="0 0 1500 1500">
  <rect width="1500" height="1500" x="0" y="0" id="background" stroke="transparent" fill="#ffeeee"></rect>
  <svg xml:space="preserve" width="1200" height="1200" data-version="2" data-id="lg_19PQdufFglfQ7Sdba0" viewBox="0 0 183 170" x="160" y="180">
    <rect width="171.997" height="159.07" x="-85.999" y="-79.535" fill="#fff" stroke="#4b304f" stroke-width="7.5" paint-order="stroke" rx="10" ry="10" transform="translate(91.5 85)"></rect>
    <path fill="#4b304f" d="M30.953 79.996h-6q-.27 0-.27-.28v-4q-3.45-1.03-5.7-4.03-2.24-3.01-2.24-6.8v-2.62q0-.28.28-.28h6.28q.2 0 .2.28v2.62q0 1.79 1.28 3.14 1.28 1.34 3 1.34 1.79 0 3-1.34 1.21-1.35 1.21-3 0-2.14-2.69-3.66-.9-.55-2.83-1.59-1.93-1.03-3.59-1.93-3.24-1.79-4.72-4.62-1.49-2.83-1.49-6.35 0-3.86 2.24-6.73 2.25-2.86 5.63-3.9v-4q0-.27.27-.27h6.01q.34 0 .34.27v4.07q3.31 1.04 5.49 3.94 2.17 2.89 2.17 6.62v4.62q0 .21-.21.21h-6.34q-.21 0-.21-.21l-.07-4.62q0-2-1.28-3.21-1.27-1.21-2.93-1.21-1.72 0-2.93 1.32-1.21 1.31-1.21 3.1 0 1.73.76 2.93.76 1.21 2.76 2.38l5.73 3.18q2.83 1.52 4.45 3.79 1.62 2.28 1.62 5.73 0 3.93-2.14 6.8-2.14 2.86-5.52 3.96v4.07q0 .28-.35.28m45.82 0h-22.29q-.27 0-.27-.34l.07-47.34q0-.34.34-.34h7.66q.35 0 .35.34l-.07 39.19h14.21q.35 0 .35.35v7.8q0 .34-.35.34m17.6.69q-3.73 0-6.8-1.9-3.07-1.89-4.93-5.03-1.87-3.14-1.87-6.94l.07-21.87q0-3.8 1.83-6.9 1.83-3.11 4.93-4.97 3.11-1.86 6.77-1.86 3.72 0 6.76 1.86 3.03 1.86 4.86 4.97 1.83 3.1 1.83 6.9l.07 21.87q0 3.8-1.83 6.94-1.83 3.14-4.9 5.03-3.07 1.9-6.79 1.9m0-8.35q2.07 0 3.62-1.69 1.55-1.69 1.55-3.83l-.07-21.87q0-2.28-1.45-3.87-1.45-1.58-3.65-1.58-2.14 0-3.66 1.55t-1.52 3.9v21.87q0 2.28 1.52 3.9t3.66 1.62m31.46 8.35q-3.8 0-6.87-1.9-3.07-1.89-4.86-5.07-1.79-3.17-1.79-7.11l.06-21.52q0-3.8 1.76-6.94 1.76-3.14 4.83-5.04 3.07-1.89 6.87-1.89 3.79 0 6.83 1.86t4.83 5q1.79 3.14 1.79 7.01v3.17q0 .28-.27.28h-7.73q-.28 0-.28-.28v-3.17q0-2.28-1.48-3.94-1.48-1.65-3.69-1.65-2.48 0-3.8 1.69-1.31 1.69-1.31 3.9v21.52q0 2.56 1.49 4.14 1.48 1.59 3.62 1.59 2.21 0 3.69-1.76t1.48-3.97v-3.17q0-.28.28-.28h7.8q.27 0 .27.28v3.17q0 3.94-1.82 7.11-1.83 3.18-4.87 5.07-3.04 1.9-6.83 1.9m31.33 0q-3.73 0-6.8-1.9-3.07-1.89-4.93-5.03-1.87-3.14-1.87-6.94l.07-21.87q0-3.8 1.83-6.9 1.83-3.11 4.93-4.97 3.11-1.86 6.77-1.86 3.72 0 6.76 1.86 3.03 1.86 4.86 4.97 1.83 3.1 1.83 6.9l.07 21.87q0 3.8-1.83 6.94-1.83 3.14-4.9 5.03-3.07 1.9-6.79 1.9m0-8.35q2.07 0 3.62-1.69 1.55-1.69 1.55-3.83l-.07-21.87q0-2.28-1.45-3.87-1.45-1.58-3.65-1.58-2.14 0-3.66 1.55t-1.52 3.9v21.87q0 2.28 1.52 3.9t3.66 1.62m-126.34 62.95-12.35.07q-.35 0-.35-.35l.14-47.4q0-.27.27-.27l12.91-.07q3.79-.07 6.93 1.79 3.14 1.86 5 5 1.87 3.14 1.87 6.94v19.8q0 4-1.93 7.28-1.94 3.28-5.18 5.21-3.24 1.93-7.31 2m-4.21-39.67-.07 31.25h4.28q2.55 0 4.31-1.79 1.76-1.8 1.76-4.28v-19.87q0-2.21-1.62-3.83t-3.83-1.55zm46.64 39.74h-22.29q-.27 0-.27-.35l.07-47.4q0-.27.27-.27h22.15q.28 0 .28.34v7.73q0 .27-.28.27h-14.14v10.77h14.14q.28 0 .28.27l.07 7.8q0 .28-.28.28h-14.21v12.07h14.21q.28 0 .28.35v7.86q0 .28-.28.28m22.5 0h-8.35q-.28 0-.35-.35l-9.52-47.4q-.07-.27.28-.27h7.79q.28 0 .35.27l5.66 31.6 5.52-31.6q.06-.27.34-.27h7.73q.34 0 .27.27l-9.38 47.4q-.07.35-.34.35m55.82 7.24h-31.54q-.27 0-.27-.27v-7.04q0-.28.27-.28h31.54q.27 0 .27.28v7.04q0 .27-.27.27"></path>
  </svg>
</svg>