<svg xmlns="http://www.w3.org/2000/svg" version="1.1" xmlns:xlink="http://www.w3.org/1999/xlink" width="1500" height="1500" viewBox="0 0 1500 1500"><rect width="1500" height="1500" x="0" y="0" id="background" stroke="transparent" fill="#f0eefe"></rect><svg xml:space="preserve" width="1000" height="1000" data-version="2" data-id="lg_19PQdufFglfQ7Sdba0" viewBox="0 0 554 156" x="250" y="250"><rect width="100%" height="100%" fill="transparent"></rect><path fill="#340065" d="M146.458 68.077h-7.36V18.87h7.36zm26.147.705H139.1v-6.376h33.506zm28.636 1.24q-11.963 0-18.265-7.05-6.29-7.039-6.29-19.012 0-7.894 2.702-13.693 2.702-5.81 8.16-9.047 5.447-3.237 13.693-3.237 11.973 0 18.222 7.05 6.248 7.05 6.248 18.927 0 7.711-2.798 13.607-2.788 5.896-8.193 9.175-5.415 3.28-13.48 3.28m-.086-7.093q5.758 0 9.613-2.435 3.856-2.435 5.768-6.74 1.901-4.294 1.901-9.794 0-5.587-1.858-9.88-1.859-4.305-5.715-6.74-3.855-2.435-9.709-2.435-8.512 0-12.902 5.137t-4.39 13.918q0 5.404 1.87 9.709 1.858 4.304 5.713 6.782 3.856 2.478 9.71 2.478m47.691 2.574 12.411-46.633h7.808l-3.909 9.58-10.371 40.332h-11.963L229.695 18.87h7.893zm32.449 0 11.44-46.633h7.882l-13.383 49.912h-11.878l-10.2-40.331-3.984-9.581h7.893zM325.621 51.5h-19.685v-5.319h19.685zm31.466 18.169q-6.91 0-12.496-2.884-5.587-2.873-8.866-8.598-3.279-5.715-3.279-14.227.086-8.417 3.28-14.227 3.193-5.81 8.865-8.78 5.671-2.97 12.86-2.97 6.472 0 11.257 2.35 4.785 2.35 7.755 6.516 2.969 4.165 3.941 9.751h-7.616q-.715-4.25-3.022-6.825-2.297-2.574-5.533-3.717-3.236-1.153-6.782-1.153-8.428 0-13.031 4.828-4.614 4.827-4.614 13.789 0 9.388 4.518 14.312 4.528 4.924 12.86 4.924 3.898 0 7.22-1.239 3.322-1.25 5.629-3.866 2.307-2.606 3.012-6.772h7.722q-.982 5.49-3.952 9.752-2.97 4.25-7.893 6.643-4.913 2.393-11.835 2.393m52.84.352q-11.963 0-18.265-7.05-6.291-7.038-6.291-19.011 0-7.894 2.702-13.693 2.702-5.81 8.16-9.047 5.448-3.237 13.693-3.237 11.974 0 18.222 7.05 6.248 7.05 6.248 18.927 0 7.711-2.787 13.607-2.799 5.896-8.203 9.175-5.405 3.28-13.48 3.28m-.086-7.092q5.757 0 9.613-2.435 3.866-2.435 5.767-6.74 1.902-4.294 1.902-9.794 0-5.587-1.859-9.88-1.858-4.305-5.714-6.74-3.856-2.435-9.71-2.435-8.512 0-12.902 5.137t-4.39 13.918q0 5.404 1.87 9.709 1.858 4.304 5.714 6.782 3.856 2.478 9.709 2.478m51.856 6.921q-4.07 0-7.882-.982-3.814-.972-6.922-3.012-3.097-2.04-4.956-5.277-1.869-3.236-1.954-7.754h7.444q0 .267.182 1.42.17 1.154.93 2.66.747 1.506 2.306 2.927 1.549 1.42 4.337 2.35 2.798.929 7.05.929 3.278 0 5.5-.705 2.21-.716 3.546-1.87 1.324-1.153 1.901-2.392.577-1.239.577-2.21 0-2.757-1.73-4.434-1.72-1.687-4.647-2.713-2.926-1.014-6.43-1.858-3.503-.844-6.964-1.859-3.45-1.025-6.333-2.702-2.884-1.687-4.476-4.39-1.602-2.702-1.42-6.964.267-4.07 2.84-6.996 2.564-2.926 7.04-4.486 4.486-1.549 10.243-1.549 5.233 0 9.623 1.87 4.38 1.858 7.092 5.532 2.703 3.685 2.607 9.357h-7.178q.085-3.108-1.239-5.01-1.335-1.9-3.418-2.969-2.083-1.068-4.294-1.463-2.221-.395-3.994-.395-4.956 0-8.193 1.816-3.236 1.815-3.332 5.094-.086 2.842 1.687 4.518 1.773 1.688 4.7 2.66 2.927.983 6.473 1.773 3.546.801 7.006 1.773 3.45.983 6.334 2.617 2.884 1.645 4.518 4.39 1.645 2.745 1.464 7.092-.171 4.166-2.83 7.092-2.66 2.927-7.093 4.518-4.433 1.602-10.115 1.602m39.99-49.378h7.359v48.31h-7.36zm22.697 4.785h-38.12V18.87h38.12zM146.458 136.713v-37.33h8.064q6.387 0 11.034 2.04 4.657 2.04 7.23 6.12 2.564 4.08 2.564 10.286 0 5.843-1.463 9.528-1.453 3.674-4.208 5.757-2.745 2.083-6.559 2.841-3.813.758-8.598.758h-2.745zm36.7-18.798q0-8.331-3.77-13.832-3.77-5.49-10.639-8.288-6.868-2.788-16.181-2.788h-13.47v49.912h13.47q9.313 0 16.181-2.136 6.868-2.126 10.639-7.573 3.77-5.458 3.77-15.295m43.44 25.004h-35.461V93.007h34.574v6.376H198.4v15.167h21.276v6.11H198.4v16.224h28.198zm26.51-3.29 15.156-46.622h8.064l-17.014 49.912h-12.326l-17.026-49.912h7.979zm64.449 3.29h-35.46V93.007h34.573v6.376h-27.31v15.167h21.276v6.11h-21.277v16.224h28.198zm16.224-.716h-7.359V93.007h7.36zm26.148.716h-33.507v-6.387h33.507zm28.635 1.24q-11.973 0-18.264-7.05-6.291-7.05-6.291-19.013 0-7.893 2.702-13.703 2.702-5.8 8.16-9.036 5.448-3.237 13.693-3.237 11.963 0 18.222 7.05 6.248 7.039 6.248 18.926 0 7.712-2.798 13.608-2.788 5.896-8.192 9.175-5.416 3.28-13.48 3.28m-.085-7.093q5.757 0 9.613-2.435 3.856-2.446 5.767-6.74 1.902-4.304 1.902-9.795 0-5.586-1.859-9.89-1.858-4.294-5.725-6.74-3.856-2.435-9.698-2.435-8.513 0-12.903 5.137-4.39 5.149-4.39 13.928 0 5.405 1.859 9.699 1.869 4.304 5.725 6.782 3.856 2.489 9.709 2.489m40.331-44.06v49.913h-7.359V93.007zm-1.057 6.11v-6.11h13.202q8.33 0 12.817 4.07 4.475 4.08 4.475 12.24 0 7.36-4.614 11.44-4.604 4.07-12.678 4.07h-13.202v-5.587h12.315q5.32 0 8.385-2.478 3.054-2.478 3.054-7.53 0-5.233-3.012-7.669-3.012-2.446-8.427-2.446zm72.513 43.803h-35.46V93.007h34.574v6.376h-27.301v15.167h21.277v6.11h-21.277v16.224h28.187zm15.776 0h-7.445V93.007h17.464q6.387 0 10.862 1.324 4.476 1.335 6.868 4.476 2.393 3.15 2.393 8.651 0 3.803-1.282 6.825-1.282 3.012-3.856 4.743-2.574 1.73-6.387 1.73 2.927 0 4.571 1.1 1.635 1.111 2.436 2.927.8 1.816 1.068 3.856t.395 3.994q.128 1.944.577 3.365.438 1.42 1.549 1.954t3.236-.267v4.433q-1.24 1.057-3.194 1.463-1.944.396-3.941-.267-1.997-.662-3.365-2.745-1.377-2.082-1.377-6.077 0-3.728-.31-6.206t-1.378-3.856q-1.057-1.378-3.279-2.04-2.211-.662-5.981-.705-3.77-.042-9.624.128zm0-43.803v17.207h10.286q4.518 0 7.444-.576 2.927-.577 4.39-2.393 1.464-1.826 1.464-5.372 0-4.166-1.773-6.025-1.773-1.858-5.138-2.35-3.375-.49-8.331-.49zM117.923 95.674c-.129-22.04-27.538-35.372-28.617-35.886-3.545-1.85-5.369-4.624-2.825-11.997 2.311-6.576 4.264-13.203 3.339-21.757C88.381 12.548 75.846 1.63 61.871 1.63h-.128C47.794 1.502 35.079 12.496 33.64 26.034c-.924 8.554 1.054 15.156 3.34 21.732 2.569 7.398.719 10.172-2.723 11.996-1.156.54-28.59 13.872-28.694 35.912-.102 20.448 0 53.251 0 53.56a2.569 2.569 0 0 0 2.57 2.568h107.272a2.569 2.569 0 0 0 2.569-2.569c0-.334.051-33.111-.051-53.56m-79.17-69.1c1.155-10.789 11.61-19.83 22.862-19.83h.23c11.252 0 21.707 9.067 22.863 19.83.745 6.833-.514 12.125-3.082 19.523-.668 1.978-2.184 6.422-1.028 10.738q-9.12 8.708-19.035 8.477c-9.042-.257-16.132-6.165-18.65-8.58 1.105-4.29-.41-8.683-1.078-10.635-2.569-7.398-3.828-12.69-3.083-19.523m74.11 120.092H10.675c0-8.143-.077-33.883 0-50.965.103-18.804 25.534-31.186 25.894-31.34a12.844 12.844 0 0 0 3.827-2.954c3.597 3.237 11.2 8.76 20.987 9.042h.771q11.046-.025 20.987-8.99 1.439 1.618 3.853 2.928c.257.128 25.688 12.459 25.791 31.34.077 17.056.051 42.796.051 50.939"></path><path fill="#340065" d="m59.174 41.344 10.275.025a2.569 2.569 0 1 0 0-5.137h-7.706v-12.87a2.569 2.569 0 1 0-5.138 0v15.413a2.569 2.569 0 0 0 2.57 2.569m-4.779 51.735a2.569 2.569 0 0 0-3.596-.36l-14.668 12.1a2.569 2.569 0 0 0 0 3.981l14.128 11.56a2.569 2.569 0 0 0 3.237-3.982l-11.688-9.581L54.062 96.7a2.569 2.569 0 0 0 .334-3.622M82.5 115.788H65.134a2.569 2.569 0 0 0 0 5.137h17.365a2.569 2.569 0 0 0 0-5.137"></path></svg></svg>