<svg xmlns="http://www.w3.org/2000/svg" version="1.1" xmlns:xlink="http://www.w3.org/1999/xlink" width="1500" height="1500" viewBox="0 0 1500 1500"><rect width="1500" height="1500" x="0" y="0" id="background" stroke="transparent" fill="#ffeeee"></rect><svg xml:space="preserve" width="1000" height="1000" data-version="2" data-id="lg_19PQdufFglfQ7Sdba0" viewBox="0 0 571 154" x="250" y="250"><rect width="100%" height="100%" fill="transparent"></rect><rect width="552.369" height="143.804" x="-276.185" y="-71.902" fill="#fff" stroke="#4b304f" stroke-width="7.5" paint-order="stroke" rx="10" ry="10" transform="translate(286.113 77)scale(.9979)"></rect><path stroke="#4b304f" stroke-width="3.493" d="M7.259 94.754H563.74"></path><path fill="#4b304f" d="M50.791 73.21h-22.29q-.27 0-.27-.34l.06-47.33q0-.35.35-.35h7.66q.34 0 .34.35l-.07 39.19h14.22q.34 0 .34.34v7.8q0 .34-.34.34m17.59.69q-3.72 0-6.79-1.89-3.07-1.9-4.94-5.04-1.86-3.14-1.86-6.93l.07-21.88q0-3.79 1.83-6.9 1.83-3.1 4.93-4.97 3.11-1.86 6.76-1.86 3.73 0 6.77 1.86 3.03 1.87 4.86 4.97 1.83 3.11 1.83 6.9l.07 21.88q0 3.79-1.83 6.93-1.83 3.14-4.9 5.04-3.07 1.89-6.8 1.89m0-8.34q2.07 0 3.63-1.69 1.55-1.7 1.55-3.83l-.07-21.88q0-2.27-1.45-3.86-1.45-1.59-3.66-1.59-2.14 0-3.65 1.55-1.52 1.56-1.52 3.9v21.88q0 2.27 1.52 3.89 1.51 1.63 3.65 1.63m33.47 7.65h-8.35q-.28 0-.35-.34l-8.14-47.4q-.07-.28.21-.28h7.73q.27 0 .34.28l4.42 31.18 4.55-31.18q.07-.28.42-.28h6.21q.27 0 .34.28l4.49 31.18 4.48-31.18q.07-.28.35-.28h7.66q.34 0 .27.28l-8.21 47.4q-.07.14-.21.24l-.13.1h-8.35q-.21 0-.35-.34l-3.52-24.77-3.52 24.77q-.07.34-.34.34m42.57-19.94h-13.32q-.34 0-.34-.27v-7.52q0-.28.34-.28h13.32q.35 0 .35.28V53q0 .27-.35.27m19.74 20.63q-3.8 0-6.87-1.89-3.07-1.9-4.86-5.07-1.8-3.18-1.8-7.11l.07-21.53q0-3.79 1.76-6.93 1.76-3.14 4.83-5.04 3.07-1.9 6.87-1.9 3.79 0 6.83 1.86 3.03 1.87 4.83 5.01 1.79 3.14 1.79 7v3.17q0 .28-.28.28h-7.72q-.28 0-.28-.28V38.3q0-2.28-1.48-3.93-1.49-1.66-3.69-1.66-2.49 0-3.8 1.69-1.31 1.69-1.31 3.9v21.53q0 2.55 1.48 4.14 1.49 1.59 3.63 1.59 2.2 0 3.69-1.76 1.48-1.76 1.48-3.97v-3.18q0-.27.28-.27h7.79q.28 0 .28.27v3.18q0 3.93-1.83 7.11-1.83 3.17-4.86 5.07-3.04 1.89-6.83 1.89m31.32 0q-3.72 0-6.8-1.89-3.07-1.9-4.93-5.04-1.86-3.14-1.86-6.93l.07-21.88q0-3.79 1.83-6.9 1.82-3.1 4.93-4.97 3.1-1.86 6.76-1.86 3.73 0 6.76 1.86 3.04 1.87 4.87 4.97 1.83 3.11 1.83 6.9l.07 21.88q0 3.79-1.83 6.93-1.83 3.14-4.9 5.04-3.07 1.89-6.8 1.89m0-8.34q2.07 0 3.62-1.69 1.56-1.7 1.56-3.83l-.07-21.88q0-2.27-1.45-3.86-1.45-1.59-3.66-1.59-2.14 0-3.66 1.55-1.51 1.56-1.51 3.9v21.88q0 2.27 1.51 3.89 1.52 1.63 3.66 1.63m30.5 8.34q-3.73 0-6.8-1.89-3.07-1.9-4.9-5.04-1.82-3.14-1.82-6.93v-3.18q0-.34.34-.34h7.73q.27 0 .27.34v3.18q0 2.27 1.52 3.89 1.52 1.63 3.66 1.63t3.66-1.66q1.51-1.66 1.51-3.86 0-2.56-3.31-4.42-1.1-.62-3.45-1.93-2.34-1.31-4.41-2.49-3.8-2.2-5.63-5.55-1.83-3.35-1.83-7.56 0-3.86 1.87-6.93 1.86-3.07 4.93-4.87 3.07-1.79 6.66-1.79 3.66 0 6.73 1.83 3.07 1.83 4.9 4.9 1.82 3.07 1.82 6.86v5.66q0 .28-.27.28h-7.73q-.28 0-.28-.28l-.06-5.66q0-2.41-1.52-3.93t-3.59-1.52q-2.14 0-3.66 1.62-1.52 1.63-1.52 3.83 0 2.28.97 3.8t3.52 2.9q.34.2 1.34.72 1.01.52 2.18 1.17 1.17.66 2.1 1.14.93.49 1.14.62 3.45 1.94 5.45 4.73 2 2.79 2 6.87 0 3.93-1.83 7.07-1.82 3.14-4.89 4.97-3.07 1.82-6.8 1.82m33.05-.69h-7.8q-.27 0-.27-.34V33.54h-8.97q-.35 0-.35-.35l.07-7.72q0-.28.28-.28h26.22q.34 0 .34.28v7.72q0 .35-.27.35h-9.04l.07 39.33q0 .34-.28.34m35.81-.06-12.35.06q-.34 0-.34-.34l.13-47.4q0-.28.28-.28l12.9-.07q3.8-.07 6.94 1.8 3.14 1.86 5 5 1.86 3.14 1.86 6.93v19.81q0 4-1.93 7.28-1.93 3.27-5.17 5.2-3.25 1.94-7.32 2.01m-4.21-39.68-.07 31.26h4.28q2.55 0 4.31-1.8 1.76-1.79 1.76-4.27V38.78q0-2.2-1.62-3.83-1.62-1.62-3.83-1.55zm46.65 39.74h-22.29q-.28 0-.28-.34l.07-47.4q0-.28.28-.28h22.15q.27 0 .27.35v7.72q0 .28-.27.28h-14.15V44.3h14.15q.27 0 .27.28l.07 7.8q0 .27-.27.27h-14.22v12.08h14.22q.27 0 .27.34v7.87q0 .27-.27.27m22.49 0h-8.35q-.27 0-.34-.34l-9.53-47.4q-.06-.28.28-.28h7.8q.27 0 .34.28l5.66 31.6 5.52-31.6q.07-.28.35-.28h7.72q.35 0 .28.28l-9.38 47.4q-.07.34-.35.34m36.36 0h-22.28q-.28 0-.28-.34l.07-47.4q0-.28.28-.28h22.14q.28 0 .28.35v7.72q0 .28-.28.28h-14.14V44.3h14.14q.28 0 .28.28l.07 7.8q0 .27-.28.27h-14.21v12.08h14.21q.28 0 .28.34v7.87q0 .27-.28.27m28.98 0h-22.28q-.28 0-.28-.34l.07-47.33q0-.35.34-.35h7.66q.35 0 .35.35l-.07 39.19h14.21q.35 0 .35.34v7.8q0 .34-.35.34m17.6.69q-3.73 0-6.8-1.89-3.07-1.9-4.93-5.04-1.86-3.14-1.86-6.93l.06-21.88q0-3.79 1.83-6.9 1.83-3.1 4.94-4.97 3.1-1.86 6.76-1.86 3.72 0 6.76 1.86 3.04 1.87 4.86 4.97 1.83 3.11 1.83 6.9l.07 21.88q0 3.79-1.83 6.93-1.82 3.14-4.9 5.04-3.07 1.89-6.79 1.89m0-8.34q2.07 0 3.62-1.69 1.55-1.7 1.55-3.83l-.07-21.88q0-2.27-1.44-3.86-1.45-1.59-3.66-1.59-2.14 0-3.66 1.55-1.52 1.56-1.52 3.9v21.88q0 2.27 1.52 3.89 1.52 1.63 3.66 1.63m26.84 7.65h-7.73q-.34 0-.34-.34l.13-47.4q0-.28.28-.28h13.25q6.35 0 10.04 3.86 3.69 3.87 3.69 10.49 0 4.9-1.93 8.49t-5.04 5.52q-3.1 1.93-6.76 1.93h-5.25v17.39q0 .34-.34.34m.34-39.74v13.66h5.25q2.21 0 3.83-2.1 1.62-2.11 1.62-5.49 0-2.69-1.45-4.41-1.45-1.73-4-1.73zm46.23 39.74h-22.28q-.28 0-.28-.34l.07-47.4q0-.28.28-.28h22.15q.27 0 .27.35v7.72q0 .28-.27.28h-14.15V44.3h14.15q.27 0 .27.28l.07 7.8q0 .27-.28.27h-14.21v12.08h14.21q.28 0 .28.34v7.87q0 .27-.28.27m14.49 0h-7.79q-.28 0-.28-.34l.14-47.4q0-.28.28-.28h13.93q3.73 0 6.87 1.83t5 4.9q1.86 3.07 1.86 6.93 0 2.56-.75 4.59-.76 2.04-1.8 3.45-1.03 1.42-1.86 2.11 3.72 4.14 3.72 9.72l.07 14.15q0 .34-.34.34h-7.8q-.27 0-.27-.2V58.72q0-2.48-1.76-4.31-1.76-1.83-4.32-1.83h-4.55l-.07 20.29q0 .34-.28.34m.35-39.74V44.3h5.93q2.14 0 3.8-1.58 1.65-1.59 1.65-3.87 0-2.21-1.62-3.79-1.62-1.59-3.83-1.59zm-259.08 95.3-8.03-6.41q-.23-.23-.23-.52 0-.29.23-.46l7.83-6.24q.08-.09.2.03l1.42 1.77q.09.17.03.23l-5.8 4.7 6 4.87q.09.09 0 .23l-1.45 1.77q-.11.12-.2.03m14.21 3.48h-5.19q-.12 0-.12-.14l.06-19.93q0-.11.12-.11h5.57q1.65 0 2.95.79 1.31.8 2.06 2.11.76 1.3.76 2.84 0 1.25-.57 2.32-.56 1.07-1.35 1.74.84.84 1.31 1.94.46 1.1.46 2.32 0 1.68-.81 3.08-.81 1.39-2.19 2.21-1.38.83-3.06.83m-1.77-16.73v4.55h2.21q1.01 0 1.63-.71.63-.71.63-1.55 0-.93-.67-1.61t-1.59-.68zm0 8.06-.03 5.13h1.8q1.04 0 1.8-.77.75-.76.75-1.81 0-1.04-.75-1.8-.76-.75-1.8-.75zm15.26 8.96q-1.54 0-2.85-.8-1.3-.79-2.07-2.13-.77-1.33-.77-2.93l.06-14.5q0-.11.12-.11h3.24q.12 0 .12.11v14.5q0 .99.62 1.67.63.68 1.53.68.92 0 1.55-.68.62-.68.62-1.67v-14.5q0-.11.12-.11h3.24q.12 0 .12.11l.06 14.5q0 1.63-.77 2.96t-2.06 2.12q-1.29.78-2.88.78m11.42-.29h-3.28q-.14 0-.14-.14l.03-19.93q0-.11.11-.11h3.25q.12 0 .12.11l.03 19.93q0 .14-.12.14m12.15 0h-9.36q-.12 0-.12-.14l.03-19.9q0-.14.14-.14h3.22q.15 0 .15.14l-.03 16.47h5.97q.15 0 .15.15v3.28q0 .14-.15.14m7.37-.03-5.19.03q-.15 0-.15-.14l.06-19.93q0-.11.12-.11l5.42-.03q1.59-.03 2.91.75t2.11 2.1q.78 1.32.78 2.92v8.32q0 1.68-.81 3.06-.81 1.38-2.18 2.19-1.36.81-3.07.84m-1.77-16.67-.03 13.13h1.8q1.07 0 1.81-.75t.74-1.8v-8.35q0-.93-.68-1.61t-1.61-.65zm17.81 16.7h-3.25q-.15 0-.15-.14l.06-19.93q0-.11.12-.11h9.28q.14 0 .14.11v3.28q0 .12-.11.12h-5.95v4.49h5.95q.11 0 .11.15l.03 3.27q0 .12-.14.12h-5.95v8.5q0 .14-.14.14m7.83-.14 3.59-19.93q.03-.11.15-.11h4.2q.12 0 .15.11l3.45 19.93q.03.14-.12.14h-3.22q-.11 0-.14-.14l-.32-2.12h-3.95l-.31 2.12q-.03.14-.15.14h-3.22q-.11 0-.11-.14m5.68-13.37-1.31 8.15h2.79l-1.19-8.15-.17-1.08zm12.61 13.8q-1.56 0-2.85-.8-1.29-.79-2.06-2.11-.77-1.32-.77-2.92v-1.33q0-.15.15-.15h3.24q.12 0 .12.15v1.33q0 .96.64 1.64.64.68 1.53.68.9 0 1.54-.69.64-.7.64-1.63 0-1.07-1.39-1.85-.47-.27-1.45-.82-.99-.55-1.86-1.04-1.59-.93-2.36-2.34-.77-1.4-.77-3.17 0-1.62.78-2.92.79-1.29 2.08-2.04t2.79-.75q1.54 0 2.83.76 1.29.77 2.06 2.06t.77 2.89v2.38q0 .11-.12.11h-3.24q-.12 0-.12-.11l-.03-2.38q0-1.02-.64-1.65-.64-.64-1.51-.64-.89 0-1.53.68t-.64 1.61q0 .96.41 1.59.4.64 1.47 1.22.15.09.57.31.42.21.91.49.5.28.89.48.39.2.48.26 1.45.81 2.29 1.99.84 1.17.84 2.88 0 1.65-.77 2.97-.77 1.32-2.06 2.09-1.29.77-2.86.77m13.9-.29h-3.28q-.12 0-.12-.14v-16.53h-3.77q-.14 0-.14-.15l.03-3.25q0-.11.11-.11h11.02q.15 0 .15.11v3.25q0 .15-.12.15h-3.8l.03 16.53q0 .14-.11.14m5.42 3.65v-1.79q.72 0 1.23-.55.51-.56.51-1.31h-1.63q-.11 0-.11-.12v-3.24q0-.12.11-.12h3.28q.12 0 .12.12v3.36q0 1.02-.5 1.86-.49.84-1.29 1.32-.79.47-1.72.47m15.11-3.36q-1.57 0-2.86-.8-1.29-.79-2.06-2.11-.77-1.32-.77-2.92v-1.33q0-.15.15-.15h3.25q.11 0 .11.15v1.33q0 .96.64 1.64.64.68 1.54.68t1.53-.69q.64-.7.64-1.63 0-1.07-1.39-1.85-.46-.27-1.45-.82-.99-.55-1.86-1.04-1.59-.93-2.36-2.34-.77-1.4-.77-3.17 0-1.62.79-2.92.78-1.29 2.07-2.04 1.29-.75 2.8-.75 1.53 0 2.82.76 1.3.77 2.06 2.06.77 1.29.77 2.89v2.38q0 .11-.11.11h-3.25q-.12 0-.12-.11l-.03-2.38q0-1.02-.63-1.65-.64-.64-1.51-.64-.9 0-1.54.68t-.64 1.61q0 .96.41 1.59.4.64 1.48 1.22.14.09.56.31.42.21.92.49.49.28.88.48.39.2.48.26 1.45.81 2.29 1.99.84 1.17.84 2.88 0 1.65-.77 2.97-.77 1.32-2.06 2.09-1.29.77-2.85.77m6.73-.43 3.59-19.93q.03-.11.15-.11h4.2q.12 0 .15.11l3.45 19.93q.03.14-.12.14h-3.22q-.11 0-.14-.14l-.32-2.12h-3.95l-.31 2.12q-.03.14-.15.14h-3.22q-.11 0-.11-.14m5.68-13.37-1.31 8.15h2.79l-1.19-8.15-.17-1.08zm14.44 13.51h-3.51q-.11 0-.14-.14l-4-19.93q-.03-.11.11-.11h3.28q.11 0 .14.11l2.38 13.28 2.32-13.28q.03-.11.15-.11h3.24q.15 0 .12.11l-3.94 19.93q-.03.14-.15.14m15.28 0h-9.36q-.12 0-.12-.14l.03-19.93q0-.11.12-.11h9.31q.11 0 .11.14v3.25q0 .12-.11.12h-5.95v4.52h5.95q.11 0 .11.12l.03 3.27q0 .12-.12.12h-5.97v5.07h5.97q.12 0 .12.15v3.3q0 .12-.12.12m11.92.29q-1.56 0-2.85-.8-1.29-.79-2.06-2.11-.77-1.32-.77-2.92v-1.33q0-.15.14-.15h3.25q.12 0 .12.15v1.33q0 .96.64 1.64.63.68 1.53.68t1.54-.69q.64-.7.64-1.63 0-1.07-1.39-1.85-.47-.27-1.45-.82-.99-.55-1.86-1.04-1.59-.93-2.36-2.34-.77-1.4-.77-3.17 0-1.62.78-2.92.78-1.29 2.07-2.04 1.3-.75 2.8-.75 1.54 0 2.83.76 1.29.77 2.06 2.06t.77 2.89v2.38q0 .11-.12.11h-3.25q-.11 0-.11-.11l-.03-2.38q0-1.02-.64-1.65-.64-.64-1.51-.64-.9 0-1.53.68-.64.68-.64 1.61 0 .96.4 1.59.41.64 1.48 1.22.15.09.57.31.42.21.91.49.5.28.89.48.39.2.48.26 1.45.81 2.29 1.99.84 1.17.84 2.88 0 1.65-.77 2.97-.77 1.32-2.06 2.09-1.29.77-2.86.77m11.11-.29h-3.28q-.11 0-.11-.14l.06-19.93q0-.11.11-.11h3.54q.12 0 .2.11l2.64 3.83 2.64-3.83q.09-.11.2-.11h3.57q.12 0 .12.11l.05 19.93q0 .14-.11.14h-3.28q-.11 0-.11-.14l-.03-14.79-3.05 4.4-3.01-4.4-.03 14.79q0 .14-.12.14m11.19-.14 3.6-19.93q.03-.11.15-.11h4.2q.12 0 .15.11l3.45 19.93q.03.14-.12.14h-3.22q-.11 0-.14-.14l-.32-2.12h-3.95l-.32 2.12q-.02.14-.14.14h-3.22q-.12 0-.12-.14m5.69-13.37-1.31 8.15h2.79l-1.19-8.15-.18-1.08zm11.08 13.51h-3.28q-.12 0-.12-.14l.06-19.93q0-.11.12-.11h5.86q1.56 0 2.88.76 1.32.77 2.1 2.06.79 1.29.79 2.92 0 1.07-.32 1.93-.32.85-.76 1.45-.43.59-.78.88 1.57 1.74 1.57 4.09l.03 5.95q0 .14-.15.14h-3.28q-.11 0-.11-.09v-6q0-1.04-.74-1.81t-1.81-.77h-1.92l-.03 8.53q0 .14-.11.14m.14-16.7v4.55h2.5q.89 0 1.59-.67.7-.66.7-1.62 0-.93-.69-1.6-.68-.66-1.6-.66zm16.62 16.7h-3.28q-.11 0-.11-.14v-16.53h-3.77q-.15 0-.15-.15l.03-3.25q0-.11.12-.11h11.02q.14 0 .14.11v3.25q0 .15-.12.15h-3.79l.02 16.53q0 .14-.11.14m12.53 0h-2.96q-.15 0-.12-.14l3.6-19.93q.03-.11.14-.11h3.02q.14 0 .12.11l-3.66 19.93q-.03.14-.14.14m15.54-9.89-8.03 6.41q-.09.09-.21-.03l-1.45-1.77q-.08-.14 0-.23l6.01-4.87-5.8-4.7q-.06-.06.03-.23l1.42-1.77q.11-.12.2-.03l7.83 6.24q.23.17.23.46 0 .29-.23.52m-512.27 8.89h-2.53q-.11 0-.11-.12v-1.68q-1.45-.43-2.4-1.69-.94-1.27-.94-2.86v-1.1q0-.12.12-.12h2.64q.08 0 .08.12v1.1q0 .75.54 1.32.54.56 1.26.56.76 0 1.26-.56.51-.57.51-1.26 0-.9-1.13-1.54-.38-.23-1.19-.67-.81-.43-1.51-.81-1.36-.75-1.98-1.94-.63-1.19-.63-2.67 0-1.62.94-2.83.95-1.2 2.37-1.64v-1.68q0-.11.11-.11h2.53q.14 0 .14.11v1.71q1.39.44 2.31 1.66.91 1.21.91 2.78v1.94q0 .09-.09.09h-2.66q-.09 0-.09-.09l-.03-1.94q0-.84-.54-1.35-.53-.51-1.23-.51-.72 0-1.23.56-.51.55-.51 1.3 0 .73.32 1.23.32.51 1.16 1l2.41 1.34q1.19.64 1.87 1.59.68.96.68 2.41 0 1.65-.9 2.86-.9 1.2-2.32 1.66v1.71q0 .12-.14.12m18.85 3.05h-13.26q-.11 0-.11-.12v-2.96q0-.11.11-.11h13.26q.11 0 .11.11v2.96q0 .12-.11.12m15.86 0h-13.25q-.12 0-.12-.12v-2.96q0-.11.12-.11h13.25q.11 0 .11.11v2.96q0 .12-.11.12m15.86 0h-13.25q-.12 0-.12-.12v-2.96q0-.11.12-.11h13.25q.12 0 .12.11v2.96q0 .12-.12.12m15.86 0h-13.25q-.11 0-.11-.12v-2.96q0-.11.11-.11h13.25q.12 0 .12.11v2.96q0 .12-.12.12m15.87 0h-13.26q-.11 0-.11-.12v-2.96q0-.11.11-.11h13.26q.11 0 .11.11v2.96q0 .12-.11.12m15.86 0h-13.25q-.12 0-.12-.12v-2.96q0-.11.12-.11h13.25q.12 0 .12.11v2.96q0 .12-.12.12m15.86 0h-13.25q-.12 0-.12-.12v-2.96q0-.11.12-.11h13.25q.12 0 .12.11v2.96q0 .12-.12.12m15.87 0h-13.26q-.11 0-.11-.12v-2.96q0-.11.11-.11h13.26q.11 0 .11.11v2.96q0 .12-.11.12m15.86 0h-13.25q-.12 0-.12-.12v-2.96q0-.11.12-.11h13.25q.12 0 .12.11v2.96q0 .12-.12.12m15.86 0h-13.25q-.12 0-.12-.12v-2.96q0-.11.12-.11h13.25q.12 0 .12.11v2.96q0 .12-.12.12m15.87 0h-13.26q-.11 0-.11-.12v-2.96q0-.11.11-.11h13.26q.11 0 .11.11v2.96q0 .12-.11.12m15.86 0h-13.25q-.12 0-.12-.12v-2.96q0-.11.12-.11h13.25q.11 0 .11.11v2.96q0 .12-.11.12m15.86 0h-13.25q-.12 0-.12-.12v-2.96q0-.11.12-.11h13.25q.12 0 .12.11v2.96q0 .12-.12.12m15.86 0h-13.25q-.11 0-.11-.12v-2.96q0-.11.11-.11h13.25q.12 0 .12.11v2.96q0 .12-.12.12"></path></svg></svg>